 <svg fill="#ff0000" id="my-svg-icon-paint-78" height="80px" width="80px" version="1.1" xmlns="http://www.w3.org/2000/svg" xmlns:xlink="http://www.w3.org/1999/xlink" viewBox="-149.38 -149.38 780.64 780.64" xml:space="preserve" stroke="#ff0000">

        <g id="SVGRepo_bgCarrier" stroke-width="0">

          <path transform="translate(-149.38, -149.38), scale(24.395)" d="M16,31.933507146106827C20.510429117734713,32.499368732942536,24.203970833203396,28.31034251151146,26.56758104707199,24.427364669897962C28.577104489458485,21.126086416315566,28.038989196047808,17.215362505344846,27.26382798206778,13.429104766439858C26.45583072978337,9.48246012749039,25.65139957581751,5.2013340763632705,22.204533159995442,3.1161541375268964C18.427579708087084,0.8312882281064469,13.404262957055522,0.4800904560144863,9.622505661756037,2.7569965501174725C6.110658081037209,4.871396426608302,5.260229875623187,9.395469648251716,4.982262796825401,13.485273380829813C4.761880622033666,16.727815069418078,6.638952576508756,19.345974851368965,8.305377330492217,22.13625681642374C10.545488820009993,25.887126859593707,11.665099407282135,31.389666712271932,16,31.933507146106827" id="my-svg-icon-paint-fill-78" fill="#f0f0f0" strokewidth="0"></path>

        </g>

        <g id="SVGRepo_tracerCarrier" stroke-linecap="round" stroke-linejoin="round"></g>

        <g id="SVGRepo_iconCarrier"> <g> <g> <path d="M216.402,170.984L113.714,472.351c-1.208,3.545,0.628,7.406,4.14,8.708c3.51,1.301,7.419-0.43,8.814-3.905L245.27,181.689 L216.402,170.984z"></path> </g> </g> <g> <g> <path d="M406.16,76.109c-100.963-100.963-264.655-100.963-365.618,0c-108.286,108.286,23.628,117.615,123.86,199.287 l42.434-124.538l2.02,0.749c-0.931-5.76-0.448-11.612,1.559-17.026c2.888-7.794,8.754-13.123,14.967-18.766l3.427-3.138 c5.006-4.661,10.907-10.638,16.717-19.586c3.309-5.1,8.478-8.026,14.175-8.026h6.842l5.154,5.32 c2.561,2.797,8.558,9.348,5.005,49.453c-1.001,11.344-2.284,15.795-3.165,18.156c-2,5.404-5.45,10.158-9.916,13.923l2.019,0.749 l-58.43,145.561c81.602,99.964,92.515,229.935,198.949,123.501C507.123,340.765,507.123,177.072,406.16,76.109z M88.624,160.018 c-22.1,0-40.016-17.916-40.016-40.017s17.915-40.017,40.016-40.017c22.101,0,40.017,17.916,40.017,40.017 S110.725,160.018,88.624,160.018z M200.927,113.332c-22.101,0-40.017-17.916-40.017-40.017c0-22.1,17.915-40.016,40.017-40.016 c22.1,0,40.016,17.916,40.016,40.016C240.943,95.416,223.026,113.332,200.927,113.332z M399.341,151.736 c22.1,0,40.017,17.916,40.017,40.016c0,22.101-17.916,40.017-40.017,40.017c-22.1,0-40.017-17.916-40.017-40.017 C359.325,169.652,377.242,151.736,399.341,151.736z M285.128,97.42c0-22.1,17.916-40.017,40.017-40.017 c22.1,0,40.017,17.916,40.017,40.017c0,22.1-17.917,40.017-40.017,40.017C303.044,137.437,285.128,119.52,285.128,97.42z M341.818,441.855c-22.101,0-40.017-17.915-40.017-40.016c0-22.101,17.915-40.017,40.017-40.017 c22.1,0,40.016,17.916,40.016,40.017C381.834,423.939,363.918,441.855,341.818,441.855z M399.341,351.818 c-22.1,0-40.017-17.915-40.017-40.017c0-22.1,17.917-40.016,40.017-40.016c22.1,0,40.017,17.915,40.017,40.016 C439.358,333.903,421.441,351.818,399.341,351.818z"></path> </g> </g> <g> <g> <path d="M258.565,101.553c-6.695,10.319-13.419,17.151-19.164,22.501c-6.988,6.508-12.5,10.778-14.409,15.928 c-1.234,3.329-1.382,6.779-0.702,10.013l28.681,10.635c2.628-2.009,4.763-4.721,5.997-8.051c0.917-2.473,1.694-7.8,2.253-14.109 C262.779,120.846,262.577,95.371,258.565,101.553z"></path> </g> </g> </g>

      </svg>